{"title":"Friday the 13th: Uncut 1980 BRRip H264 AAC - IceBane (Kingdom-Re","uid":5343946,"size":1591049264,"categoryP":"video","categoryS":"movies","magnet":"?xt=urn:btih:ea58e330f4d42cf06c31068cde5764974a4b6b6e&amp;dn=Friday+the+13th%3A+Uncut+1980+BRRip+H264+AAC+-+IceBane+%28Kingdom-Re&amp;tr=udp%3A%2F%2Ftracker.openbittorrent.com%3A80&amp;tr=udp%3A%2F%2Fopen.demonii.com%3A1337&amp;tr=udp%3A%2F%2Ftracker.coppersurfer.tk%3A6969&amp;tr=udp%3A%2F%2Fexodus.desync.com%3A6969","seeders":0,"leechers":1,"uploader":"IceBane","files":-1,"time":1265571954,"description":"General:\n\nTitle: Friday the 13th: Uncut \nDirector: Sean S. Cunningham\nRelease Date: 9 May 1980 (USA)\nRuntime: 95 min  \nGenre: Horror | Mystery | Thriller   \nColor: Color\nIMDb Rating: 6.3/10   24,858 votes             \nIMDB Link: http://www.imdb.com/title/tt0080761/\nStudio: Paramount Pictures\nLanguage: English\nSubtitles: None\nSample Video: yes\n\nPlot:\n\nIn 1957, at Camp Crystal Lake, a young boy named Jason Voorhees drowned. In 1958, two camp counselors were murdered. In 1962, fires and bad water thwarted the camp's reopening. Now, in 1979, Steve Christy finally reopens Camp Crystal Lake with the help of a few new counselors. Ignoring the warnings from a local wacko, the murders start once again while a mysterious stalker prowls the area. Is it Revenge that the killer is looking for? Who will survive the nightmare and live to tell the story?\n\nVideo:\n\n\nSorce Format: Blu-Ray\nFormat: H.264/MPEG-4 AVC\nFormat/Info: Advanced Video Codec\nFormat profile: &lt;a class=&quot;__cf_email__&quot; href=&quot;/cdn-cgi/l/email-protection&quot; data-cfemail=&quot;1058797778505c243e20&quot;&gt;[email&amp;#160;protected]&lt;/a&gt;&lt;script cf-hash='f9e31' type=&quot;text/javascript&quot;&gt;\n/* &lt;![CDATA[ */!function(){try{var t=&quot;currentScript&quot;in document?document.currentScript:function(){for(var t=document.getElementsByTagName(&quot;script&quot;),e=t.length;e--;)if(t[e].getAttribute(&quot;cf-hash&quot;))return t[e]}();if(t&amp;&amp;t.previousSibling){var e,r,n,i,c=t.previousSibling,a=c.getAttribute(&quot;data-cfemail&quot;);if(a){for(e=&quot;&quot;,r=parseInt(a.substr(0,2),16),n=2;a.length-n;n+=2)i=parseInt(a.substr(n,2),16)^r,e+=String.fromCharCode(i);e=document.createTextNode(e),c.parentNode.replaceChild(e,c)}}}catch(u){}}();/* ]]&gt; */&lt;/script&gt;\nFormat settings, CABAC: Yes\nFormat settings, ReFrames: 5 frames\nCodec ID: avc1\nCodec ID/Info: Advanced Video Coding\nDuration: 1h 35mn\nBit rate mode: Variable\nBit rate: 1980 Kbps\nMaximum bit rate: 5856 Kbps \nScreen Resolution: 1376 x 768\nDisplay aspect ratio: 16:9\nFrame rate mode: Constant\nFrame rate: 24.000 fps\nResolution: 8 bits\nColorimetry: 4:2:0\nScan type: Progressive\nBits/(Pixel*Frame): 0.078\nStream size: 1.32 GiB (90%)\n\nAudio:\n\nFormat: mp4a - MPEG-4 AAC LC\nFormat/Info: Advanced Audio Codec\nFormat version: Version 4\nFormat profile: LC\nFormat settings, SBR: No\nCodec ID: 40\nDuration: 1h 35mn\nBit rate mode: Variable\nBit rate: 210 Kbps\nMaximum bit rate: 270 Kbps\nChannel(s): 2 channels\nChannel positions: L R\nSampling rate: 48.0 KHz\nStream size: 143 MiB (10%)\n\nHope you all Enjoy.\n\nIceBane\n\n\nPlease Note: From what I understand this is the fabled &quot;international&quot; cut of the film (the U.S. theatrical version is not included on the BR disk).","torrent":{"xt":"urn:btih:ea58e330f4d42cf06c31068cde5764974a4b6b6e","amp;dn":"Friday+the+13th%3A+Uncut+1980+BRRip+H264+AAC+-+IceBane+%28Kingdom-Re","amp;tr":["udp%3A%2F%2Ftracker.openbittorrent.com%3A80","udp%3A%2F%2Fopen.demonii.com%3A1337","udp%3A%2F%2Ftracker.coppersurfer.tk%3A6969","udp%3A%2F%2Fexodus.desync.com%3A6969"],"infoHash":"ea58e330f4d42cf06c31068cde5764974a4b6b6e","infoHashBuffer":{"type":"Buffer","data":[234,88,227,48,244,212,44,240,108,49,6,140,222,87,100,151,74,75,107,110]},"announce":[],"urlList":[]}}